<?xml version="1.0" standalone="no"?>
<svg width="1920" height="1080">
<polyline points="231 403231 403233 402236 400240 398243 397246 395250 393253 391256 388260 386263 384266 382269 381273 379278 376282 373286 371291 370294 368298 366303 364309 363314 360323 358329 357335 355341 354347 353354 352362 351370 349380 348389 347399 347407 346417 346426 346434 346441 346449 347460 348465 348470 349476 350481 351483 352486 352490 353495 353500 354508 355515 356523 357529 358536 359543 360550 360556 362562 362568 363573 364580 365585 365590 366592 366595 366597 367600 367603 367605 368608 368610 368612 368614 368616 369619 369622 370624 370629 372631 372633 373635 374637 374639 375641 376642 377644 377646 378648 378650 379652 379653 380654 381656 382658 383662 385664 386666 387669 388672 389676 391679 392683 394686 395690 397692 397695 398697 399699 400700 400702 401704 401707 402710 403712 403714 404716 405718 405720 406721 406723 407725 408726 408" stroke = "#E7E70D" fill = "#00000000" stroke-width = "114" transform = "rotate(0) translate(-15 80) scale(1 1)"/>
<polyline points="4 4114 4114 4115 4097 4078 40510 40312 40115 39917 39719 39522 39324 39126 39028 38930 38833 38737 38641 38545 38450 38455 38459 38462 38465 38468 38571 38673 38776 38980 39084 39288 39491 39695 39899 400102 401105 401108 403111 403114 404117 404121 404125 404129 403133 403137 402140 401143 401146 399149 398152 396156 393159 391163 389167 388170 386173 385175 384178 383180 382183 382185 381188 380190 380194 380196 380200 380203 380205 380208 380210 380213 381215 382217 382220 383222 384224 385227 386229 386230 387231 388232 388232 389" stroke = "#2358AD" fill = "#00000000" stroke-width = "42" transform = "rotate(0) translate(-15 65) scale(1 1)"/>
<polyline points="697 390697 390698 390704 386714 381720 379727 376734 374740 374747 373753 373758 372764 372771 372776 372783 372789 372796 372802 373809 375816 377823 380831 383841 387847 391853 393859 396866 398871 399875 401880 402885 402889 403893 404897 404901 404905 404908 404912 404916 403921 402926 399932 395941 390946 387951 384955 382958 381961 380962 380963 380967 380970 380977 382984 385988 388993 390997 3911000 3931005 3941008 3951013 3971015 3981017 3991019 4001019 4001023 4001027 3991029 3991030 3991030 399" stroke = "#2358AD" fill = "#00000000" stroke-width = "36" transform = "rotate(0) translate(11 77) scale(1 1)"/>
<polyline points="1000 3791000 3791000 3791011 3731022 3661030 3611042 3541048 3511056 3491064 3471071 3471076 3471082 3471086 3481091 3501095 3541098 3561103 3601107 3641112 3681118 3751122 3791126 3821131 3851136 3871140 3891143 3901146 3911150 3911152 3911156 3911159 3901164 3891168 3861173 3831179 3811184 3781192 3761193 3751199 3741202 3741206 3741209 3741215 3741220 3751226 3761231 3771233 377" stroke = "#2358AD" fill = "#00000000" stroke-width = "49" transform = "rotate(0) translate(52 97) scale(1 1)"/>
<polyline points="841 370841 370844 369853 365862 361870 358880 355897 350904 348912 347918 346922 346926 346929 346933 346937 346941 346946 349951 352955 354959 357963 359967 360970 360973 360979 360982 360986 360990 360993 359997 3591000 3591004 3591008 3591011 3601015 3601019 361" stroke = "#2358AD" fill = "#00000000" stroke-width = "33" transform = "rotate(0) translate(-376 100) scale(1 1)"/>
<polyline points="1188 3981188 3981188 3981196 3931202 3881209 3841217 3771224 3731231 3681237 3651243 3611248 3581255 3551261 3531270 3511277 3501287 3501297 3501304 3501316 3541318 3551327 3601332 3641338 3681342 3721347 3761350 3801355 3831357 3851361 3881365 3891369 3901374 3911378 3911383 3921388 3921393 3911396 3911401 3901408 3881411 3881415 3871418 3861421 3861424 3851427 3851430 3851433 3841435 3831438 3821439 3811440 379" stroke = "#2358AD" fill = "#00000000" stroke-width = "36" transform = "rotate(0) translate(104 98) scale(1 1)"/>
<polyline points="108 384108 384108 384104 382102 38199 38097 37894 37792 37790 37587 37585 37482 37378 37276 37174 37172 37070 37068 37066 37063 37061 37058 37055 37153 37251 37248 37345 37444 37442 37439 37437 37434 37330 37327 37224 37122 37119 37116 37112 3719 3717 371" stroke = "#2358AD" fill = "#00000000" stroke-width = "31" transform = "rotate(0) translate(273 85) scale(1 1)"/>
<line x1 = "3" x2 = "1440" y1 = "538" y2 = "543" stroke = "#2358AD" fill = "#00000000" stroke-width = "300" transform = "rotate(0) translate(12 71) scale(1 1)"/>
<polyline points="92 55792 55794 554105 543118 532132 521140 516150 512157 510161 510168 510170 513173 518179 528181 533184 539185 541187 543189 544193 545198 545205 545212 542218 540226 535231 532236 528240 525244 521247 517247 516249 514250 512251 511251 511" stroke = "#0599B7" fill = "#00000000" stroke-width = "10" transform = "rotate(0) translate(-51.8835503302149 -23.2827258079887) scale(1 1)"/>
<polyline points="159 614159 614161 612164 608169 604171 603181 597190 594192 593201 591204 591208 590212 590214 590217 590220 590222 591226 592230 594236 598241 602245 606250 610253 613256 617257 618259 620260 620261 621262 621264 621266 621267 621271 621274 619279 617283 614288 610293 607297 603302 599305 595309 590316 584321 579325 576329 573332 572335 571337 571339 571341 571344 572347 574351 575355 578360 581365 585371 589375 593380 597383 600386 603388 605389 606390 607390 607391 608392 608395 608399 607405 606411 604418 602426 600434 597441 593448 590453 586458 584463 580464 579465 579" stroke = "#0599B7" fill = "#00000000" stroke-width = "10" transform = "rotate(0) translate(0 0) scale(1 1)"/>
<polyline points="392 536392 536395 535397 532405 526411 523415 519422 516429 513436 510445 508450 508453 508455 508457 508458 508460 508461 509462 510464 512466 513470 516473 519477 522480 526484 529488 534491 537496 541499 544500 546502 547503 547504 549507 549509 550512 552514 553515 554517 554521 554526 553531 550539 547548 543556 539569 530579 523589 517596 512604 506612 501617 497622 493627 490633 488638 486642 486646 485650 485655 486658 487662 489665 491669 494672 496677 501680 503682 506685 509688 512690 515692 517694 520696 523698 527699 530701 533702 534703 535705 536706 537708 538711 539713 539715 539717 539719 539721 539723 539725 539727 538729 538731 537734 537736 536738 536740 535741 535742 534" stroke = "#0599B7" fill = "#00000000" stroke-width = "10" transform = "rotate(0) translate(0 0) scale(1 1)"/>
<polyline points="642 617642 617642 617660 607674 600687 592695 588703 585708 583713 582715 582718 582720 582722 582726 583730 585735 589740 591745 595750 600757 605761 608766 611770 614774 615779 617784 618792 619798 620804 620810 620816 620820 620824 619827 618830 615833 612836 609839 605845 599850 594855 589862 584867 581873 578877 575882 574890 573893 573898 573902 573906 574909 575912 577915 578918 580922 582926 585931 591935 596939 600942 604" stroke = "#0599B7" fill = "#00000000" stroke-width = "10" transform = "rotate(0) translate(0 0) scale(1 1)"/>
<polyline points="1034 5361034 5361034 5361045 5271060 5161074 5061087 5001098 4961108 4951116 4951124 4951133 4951138 4981141 5001146 5041151 5081160 5141168 5191176 5231184 5271190 5301197 5311204 5311209 5311217 5291221 5261229 5201238 5091244 5031249 4961255 4921260 4891262 4881265 488" stroke = "#0599B7" fill = "#00000000" stroke-width = "10" transform = "rotate(0) translate(0 0) scale(1 1)"/>
<polyline points="1128 6131128 6131131 6121135 6121146 6091164 6051181 6021192 6001202 6001208 6001212 6001215 6001217 6011220 6041226 6081233 6141245 6241266 6331279 6361293 6361302 6341311 6311319 6271327 6221336 6161342 6121347 6081352 6041355 600" stroke = "#0599B7" fill = "#00000000" stroke-width = "10" transform = "rotate(0) translate(0 0) scale(1 1)"/>
<polygon points="375 373374 141419 141421 369375 373" stroke = "#752C04" fill = "#00000000" stroke-width = "10" transform = "rotate(0) translate(0 0) scale(1 1)"/>
<polyline points="373 180373 180371 180369 180362 179349 178340 178331 179325 180319 182314 185311 188308 193303 198299 206294 214289 223285 234281 244277 258276 265274 273274 278274 282274 284274 284274 284274 284274 283273 283273 282273 282273 281273 281272 280272 279272 278271 276271 274271 270271 265272 260272 253273 248274 244275 240277 234279 230281 225284 220288 213292 208297 201303 196309 191317 184323 181328 178334 177340 175346 173351 172356 171363 171368 171374 171379 171381 171382 171383 171383 171383 171382 171382 171382 171381 171380 171378 170374 168364 167356 165346 164335 163324 162312 162302 162293 162285 162275 164267 167257 171247 175238 179230 184220 190212 196203 204196 213185 228176 244169 257163 270158 283154 291149 303146 312143 318140 324138 328137 330136 331135 332135 332134 331134 330133 329131 325129 321128 317126 310125 301125 289126 273128 256129 243132 232135 220139 209144 198150 187156 178162 171169 163175 158183 154203 146219 141234 136246 132259 128269 125278 123289 121301 121311 121324 121335 121347 121358 123365 125370 126373 127374 127375 127375 127369 127364 125357 122347 118337 114328 110315 105302 101287 96274 92263 88253 86245 85238 84232 84225 84213 87204 90192 96181 104168 114158 124149 133138 142129 150122 156116 162113 165111 167110 167110 168110 167110 166110 165110 164111 160115 153122 143134 129145 116157 105168 96181 88196 79211 72222 66235 62248 60261 59275 59283 59295 61311 66320 71331 77341 83349 89356 96361 102367 110371 116374 122376 126378 130379 133379 135380 136380 137380 137380 137380 137380 137380 133378 125376 114374 98370 80368 65364 52359 40355 32349 24344 18337 11334 8329 5325 3321 1315 1309 0305 0297 0292 0288 0284 2281 3277 4275 5275 5274 6274 6275 6277 6284 6293 6310 6328 6347 6366 6381 6392 9400 13406 17410 22413 26413 29414 33415 39416 51416 60414 71413 83410 94408 100405 108404 113402 117401 119400 120400 121399 122399 122399 122399 122399 119399 112399 105401 92406 79413 66417 57426 43435 34443 28452 22460 18469 15480 13493 11509 11519 11531 11545 16553 22560 27568 34575 42582 49587 56591 62594 70596 74597 77598 78598 79598 80597 80593 80585 79575 77565 75558 72548 67538 61527 56518 53509 50503 48494 47477 47467 50461 53453 59445 65439 75431 87422 102416 118414 126413 131413 133413 134413 134413 134417 130423 127432 121445 115457 109478 105492 104505 104519 104532 105560 120567 126577 133582 139588 143592 148596 152600 157604 162607 166610 171611 174612 176613 178613 179613 180613 181613 182613 182613 183611 183607 180603 177599 174594 167588 162580 156569 148559 142549 137537 132525 129511 127501 127490 127483 127476 130471 131467 134464 135463 136463 137462 137462 137462 137462 138462 138463 138469 137480 137493 138507 140519 145531 154541 163547 169552 175556 181559 185561 189564 195565 197567 204568 212569 217569 222569 231569 233570 235570 236570 237570 238570 239570 240570 240570 241570 242569 243569 244569 245569 247569 248569 249569 249568 249568 249568 250568 250568 250567 249565 248562 245557 239553 234549 230545 225542 222539 219536 216532 213528 211523 208517 205510 202501 198492 196483 192475 190466 189461 188458 188457 188456 188455 188456 188458 188468 188482 193490 197495 203500 209505 216507 222509 229509 234510 240510 244510 249509 253509 256509 259508 261508 263507 264507 265507 266507 266507 266506 266506 266504 266503 265499 261494 256490 251483 243481 238476 231470 223468 220465 217462 216460 214458 212455 209453 208452 206450 204448 203446 201444 200442 199440 197437 196435 194433 193431 191428 189426 188422 186420 185417 183415 182412 180408 179405 178402 177399 176397 175395 175394 175393 174392 174392 174392 174391 174391 174391 174" stroke = "#05B72C" fill = "#00000000" stroke-width = "10" transform = "rotate(0) translate(0 0) scale(1 1)"/>
<circle cx = "1351" cy = "69" r = "124.807852317072" stroke = "#CBAE0A" fill = "#CAD807" stroke-width = "16" transform = "rotate(0) translate(0 0) scale(1 1)"/>
<line x1 = "1184" x2 = "1094" y1 = "37" y2 = "27" stroke = "#CBAE0A" fill = "#00000000" stroke-width = "10" transform = "rotate(0) translate(0 0) scale(1 1)"/>
<line x1 = "1188" x2 = "1102" y1 = "105" y2 = "120" stroke = "#CBAE0A" fill = "#00000000" stroke-width = "10" transform = "rotate(0) translate(0 0) scale(1 1)"/>
<line x1 = "1227" x2 = "1156" y1 = "176" y2 = "227" stroke = "#CBAE0A" fill = "#00000000" stroke-width = "10" transform = "rotate(0) translate(0 0) scale(1 1)"/>
<line x1 = "1296" x2 = "1268" y1 = "217" y2 = "291" stroke = "#CBAE0A" fill = "#00000000" stroke-width = "10" transform = "rotate(0) translate(0 0) scale(1 1)"/>
<line x1 = "1385" x2 = "1392" y1 = "228" y2 = "309" stroke = "#CBAE0A" fill = "#00000000" stroke-width = "10" transform = "rotate(0) translate(0 0) scale(1 1)"/>
<line x1 = "1120" x2 = "1055" y1 = "73" y2 = "80" stroke = "#CBAE0A" fill = "#00000000" stroke-width = "10" transform = "rotate(0) translate(0 0) scale(1 1)"/>
<line x1 = "1143" x2 = "1097" y1 = "167" y2 = "190" stroke = "#CBAE0A" fill = "#00000000" stroke-width = "10" transform = "rotate(0) translate(0 0) scale(1 1)"/>
<line x1 = "1224" x2 = "1194" y1 = "232" y2 = "280" stroke = "#CBAE0A" fill = "#00000000" stroke-width = "10" transform = "rotate(0) translate(0 0) scale(1 1)"/>
<line x1 = "1333" x2 = "1320" y1 = "268" y2 = "325" stroke = "#CBAE0A" fill = "#00000000" stroke-width = "10" transform = "rotate(0) translate(0 0) scale(1 1)"/>
<polyline points="698 136698 136699 136703 135712 135722 135730 136739 137748 139757 142761 145761 145762 146762 146762 147762 147763 148764 149764 149764 150764 150765 151765 152765 152765 152765 152765 152765 153765 153765 153765 153765 153766 153766 152766 152767 152767 151767 150768 150769 149770 147772 146774 144776 143778 141781 138785 135789 133790 132794 130798 129803 127808 125813 124818 123823 122828 121833 120838 120842 120844 119845 119846 119847 119847 119" stroke = "#4C4C4C" fill = "#00000000" stroke-width = "10" transform = "rotate(0) translate(0 0) scale(1 1)"/>
<polyline points="850 218850 218851 218853 217855 217858 216861 216864 215868 215873 215878 214882 214885 214889 214892 214894 215898 215901 215907 216913 219922 223926 225930 227932 229934 229935 230935 230936 231936 231937 232937 232937 232937 232937 232938 232939 231941 231943 230944 230944 230945 230945 230945 229945 229946 229946 228947 227948 226950 224952 223954 221957 219960 217964 215968 213973 211977 209982 208986 207990 206995 2061000 2061008 2061015 2051019 2051022 2051023 2051026 2051026 2051027 205" stroke = "#4C4C4C" fill = "#00000000" stroke-width = "10" transform = "rotate(0) translate(0 0) scale(1 1)"/>
</svg>